<svg width="30" height="24" viewBox="0 0 30 24" fill="none" xmlns="http://www.w3.org/2000/svg">
<path d="M27.0004 0H3.00007C1.35005 0 0.0150307 1.35 0.0150307 3L3.05176e-05 21C3.05176e-05 22.65 1.35005 24 3.00007 24H27.0004C28.6504 24 30.0004 22.65 30.0004 21V3C30.0004 1.35 28.6504 0 27.0004 0ZM26.4004 6.375L15.7952 13.005C15.3152 13.305 14.6852 13.305 14.2052 13.005L3.60008 6.375C3.22507 6.135 3.00007 5.73 3.00007 5.295C3.00007 4.29 4.09508 3.69 4.95009 4.215L15.0002 10.5L25.0504 4.215C25.9054 3.69 27.0004 4.29 27.0004 5.295C27.0004 5.73 26.7754 6.135 26.4004 6.375Z" fill="#FF962D"/>
</svg>
