<svg width="42" height="42" viewBox="0 0 42 42" fill="none" xmlns="http://www.w3.org/2000/svg">
<g filter="url(#filter0_ddd)">
<path d="M3 38L5.54384 28.7583C3.97972 26.0542 3.1461 22.9822 3.15469 19.8417C3.15469 10.001 11.1987 2 21.0819 2C25.8773 2 30.3806 3.85691 33.7581 7.22843C37.1441 10.6 39.009 15.0839 39.0004 19.8503C39.0004 29.691 30.9564 37.6919 21.0733 37.6919H21.0647C18.0654 37.6919 15.1176 36.9389 12.4964 35.5184L3 38ZM12.9433 32.2838L13.4847 32.609C15.7707 33.961 18.3919 34.6713 21.0647 34.6798H21.0733C29.2806 34.6798 35.9667 28.0309 35.9667 19.8503C35.9667 15.8883 34.4198 12.1659 31.6096 9.35916C28.7993 6.55241 25.0523 5.01212 21.0733 5.01212C12.8574 5.01212 6.1712 11.661 6.1712 19.8417C6.1712 22.6399 6.95326 25.3696 8.44862 27.7314L8.80098 28.2962L7.30561 33.7556L12.9433 32.2838Z" fill="white"/>
<path d="M3.61877 37.3753L6.07667 28.4502C4.56412 25.8402 3.76487 22.8709 3.76487 19.8417C3.76487 10.3432 11.5339 2.61609 21.0647 2.61609C25.6969 2.61609 30.0369 4.41309 33.3026 7.66482C36.5683 10.9165 38.3645 15.2465 38.3645 19.8502C38.3645 29.3487 30.5955 37.0758 21.0647 37.0758H21.0561C18.1599 37.0758 15.3153 36.3484 12.7886 34.9793L3.61877 37.3753Z" fill="url(#paint0_linear)"/>
<path d="M3 38L5.54384 28.7583C3.97972 26.0542 3.1461 22.9822 3.15469 19.8417C3.15469 10.001 11.1987 2 21.0819 2C25.8773 2 30.3806 3.85691 33.7581 7.22843C37.1441 10.6 39.009 15.0839 39.0004 19.8503C39.0004 29.691 30.9564 37.6919 21.0733 37.6919H21.0647C18.0654 37.6919 15.1176 36.9389 12.4964 35.5184L3 38ZM12.9433 32.2838L13.4847 32.609C15.7707 33.961 18.3919 34.6713 21.0647 34.6798H21.0733C29.2806 34.6798 35.9667 28.0309 35.9667 19.8503C35.9667 15.8883 34.4198 12.1659 31.6096 9.35916C28.7993 6.55241 25.0523 5.01212 21.0733 5.01212C12.8574 5.01212 6.1712 11.661 6.1712 19.8417C6.1712 22.6399 6.95326 25.3696 8.44862 27.7314L8.80098 28.2962L7.30561 33.7556L12.9433 32.2838Z" fill="url(#paint1_linear)"/>
<path fill-rule="evenodd" clip-rule="evenodd" d="M16.5958 12.3714C16.2606 11.6269 15.9082 11.6098 15.5903 11.6012C15.3324 11.5927 15.0316 11.5927 14.7309 11.5927C14.4301 11.5927 13.9488 11.7039 13.5363 12.1489C13.1238 12.5938 11.9722 13.672 11.9722 15.8712C11.9722 18.0619 13.5793 20.184 13.8027 20.4835C14.0261 20.783 16.9051 25.4296 21.4514 27.218C25.2328 28.707 26.0062 28.4075 26.8227 28.3305C27.6477 28.2535 29.4696 27.2523 29.8478 26.2083C30.2173 25.1643 30.2173 24.2744 30.1056 24.0861C29.9939 23.8979 29.6931 23.7866 29.2462 23.5641C28.7993 23.3416 26.5992 22.2634 26.1867 22.1094C25.7742 21.9639 25.4734 21.8869 25.1812 22.3319C24.8804 22.7769 24.021 23.7781 23.7632 24.0776C23.5054 24.3771 23.239 24.4113 22.7921 24.1888C22.3452 23.9663 20.9014 23.4957 19.1912 21.9725C17.8591 20.7916 16.9567 19.3283 16.6989 18.8834C16.4411 18.4384 16.6731 18.1988 16.8966 17.9763C17.0942 17.7795 17.3434 17.4543 17.5669 17.1976C17.7903 16.9409 17.8677 16.7526 18.0138 16.4531C18.1599 16.1536 18.0911 15.8969 17.9794 15.6744C17.8591 15.4605 16.9911 13.2527 16.5958 12.3714Z" fill="white"/>
</g>
<defs>
<filter id="filter0_ddd" x="0" y="0" width="42.0005" height="42" filterUnits="userSpaceOnUse" color-interpolation-filters="sRGB">
<feFlood flood-opacity="0" result="BackgroundImageFix"/>
<feColorMatrix in="SourceAlpha" type="matrix" values="0 0 0 0 0 0 0 0 0 0 0 0 0 0 0 0 0 0 127 0"/>
<feOffset dy="1"/>
<feGaussianBlur stdDeviation="1.5"/>
<feColorMatrix type="matrix" values="0 0 0 0 0 0 0 0 0 0 0 0 0 0 0 0 0 0 0.1 0"/>
<feBlend mode="normal" in2="BackgroundImageFix" result="effect1_dropShadow"/>
<feColorMatrix in="SourceAlpha" type="matrix" values="0 0 0 0 0 0 0 0 0 0 0 0 0 0 0 0 0 0 127 0"/>
<feOffset dy="2"/>
<feGaussianBlur stdDeviation="1"/>
<feColorMatrix type="matrix" values="0 0 0 0 0 0 0 0 0 0 0 0 0 0 0 0 0 0 0.06 0"/>
<feBlend mode="normal" in2="effect1_dropShadow" result="effect2_dropShadow"/>
<feColorMatrix in="SourceAlpha" type="matrix" values="0 0 0 0 0 0 0 0 0 0 0 0 0 0 0 0 0 0 127 0"/>
<feOffset/>
<feGaussianBlur stdDeviation="1"/>
<feColorMatrix type="matrix" values="0 0 0 0 0 0 0 0 0 0 0 0 0 0 0 0 0 0 0.07 0"/>
<feBlend mode="normal" in2="effect2_dropShadow" result="effect3_dropShadow"/>
<feBlend mode="normal" in="SourceGraphic" in2="effect3_dropShadow" result="shape"/>
</filter>
<linearGradient id="paint0_linear" x1="20.9974" y1="37.3746" x2="20.9974" y2="2.61595" gradientUnits="userSpaceOnUse">
<stop stop-color="#20B038"/>
<stop offset="1" stop-color="#60D66A"/>
</linearGradient>
<linearGradient id="paint1_linear" x1="20.9975" y1="37.9977" x2="20.9975" y2="1.99251" gradientUnits="userSpaceOnUse">
<stop stop-color="#F9F9F9"/>
<stop offset="1" stop-color="white"/>
</linearGradient>
</defs>
</svg>
